<mxfile host="app.diagrams.net" agent="Mozilla/5.0 (Macintosh; Intel Mac OS X 10.15; rv:128.0) Gecko/20100101 Firefox/128.0" version="24.7.6">
  <diagram name="Page-1" id="QGAENbP_7samY_ILDqjr">
    <mxGraphModel dx="1833" dy="491" grid="1" gridSize="10" guides="1" tooltips="1" connect="1" arrows="1" fold="1" page="1" pageScale="1" pageWidth="1100" pageHeight="850" math="0" shadow="0">
      <root>
        <mxCell id="0" />
        <mxCell id="1" parent="0" />
        <mxCell id="RMSyVIdG78tPgDftZzgw-3" value="" style="edgeStyle=orthogonalEdgeStyle;rounded=0;sketch=1;hachureGap=4;jiggle=2;curveFitting=1;orthogonalLoop=1;jettySize=auto;html=1;fontFamily=Architects Daughter;fontSource=https%3A%2F%2Ffonts.googleapis.com%2Fcss%3Ffamily%3DArchitects%2BDaughter;" edge="1" parent="1" source="RMSyVIdG78tPgDftZzgw-1" target="RMSyVIdG78tPgDftZzgw-2">
          <mxGeometry relative="1" as="geometry" />
        </mxCell>
        <mxCell id="RMSyVIdG78tPgDftZzgw-11" value="" style="edgeStyle=orthogonalEdgeStyle;rounded=0;sketch=1;hachureGap=4;jiggle=2;curveFitting=1;orthogonalLoop=1;jettySize=auto;html=1;fontFamily=Architects Daughter;fontSource=https%3A%2F%2Ffonts.googleapis.com%2Fcss%3Ffamily%3DArchitects%2BDaughter;" edge="1" parent="1" source="RMSyVIdG78tPgDftZzgw-1" target="RMSyVIdG78tPgDftZzgw-10">
          <mxGeometry relative="1" as="geometry" />
        </mxCell>
        <mxCell id="RMSyVIdG78tPgDftZzgw-28" style="edgeStyle=orthogonalEdgeStyle;rounded=0;sketch=1;hachureGap=4;jiggle=2;curveFitting=1;orthogonalLoop=1;jettySize=auto;html=1;fontFamily=Architects Daughter;fontSource=https%3A%2F%2Ffonts.googleapis.com%2Fcss%3Ffamily%3DArchitects%2BDaughter;" edge="1" parent="1" source="RMSyVIdG78tPgDftZzgw-1" target="RMSyVIdG78tPgDftZzgw-27">
          <mxGeometry relative="1" as="geometry" />
        </mxCell>
        <mxCell id="RMSyVIdG78tPgDftZzgw-1" value="&lt;font style=&quot;font-size: 20px;&quot;&gt;1950-1960&lt;br&gt;Early Database Systems : &lt;br&gt;Origins &amp;amp; Initial Challenges&lt;br&gt;&lt;/font&gt;" style="shape=step;perimeter=stepPerimeter;whiteSpace=wrap;html=1;fixedSize=1;sketch=1;hachureGap=4;jiggle=2;curveFitting=1;fontFamily=Architects Daughter;fontSource=https%3A%2F%2Ffonts.googleapis.com%2Fcss%3Ffamily%3DArchitects%2BDaughter;" vertex="1" parent="1">
          <mxGeometry y="280" width="360" height="80" as="geometry" />
        </mxCell>
        <mxCell id="RMSyVIdG78tPgDftZzgw-5" value="" style="edgeStyle=orthogonalEdgeStyle;rounded=0;sketch=1;hachureGap=4;jiggle=2;curveFitting=1;orthogonalLoop=1;jettySize=auto;html=1;fontFamily=Architects Daughter;fontSource=https%3A%2F%2Ffonts.googleapis.com%2Fcss%3Ffamily%3DArchitects%2BDaughter;" edge="1" parent="1" source="RMSyVIdG78tPgDftZzgw-2" target="RMSyVIdG78tPgDftZzgw-4">
          <mxGeometry relative="1" as="geometry" />
        </mxCell>
        <mxCell id="RMSyVIdG78tPgDftZzgw-2" value="Architecture" style="whiteSpace=wrap;html=1;fontFamily=Architects Daughter;sketch=1;hachureGap=4;jiggle=2;curveFitting=1;fontSource=https%3A%2F%2Ffonts.googleapis.com%2Fcss%3Ffamily%3DArchitects%2BDaughter;" vertex="1" parent="1">
          <mxGeometry x="-60" y="480" width="120" height="40" as="geometry" />
        </mxCell>
        <mxCell id="RMSyVIdG78tPgDftZzgw-7" value="" style="edgeStyle=orthogonalEdgeStyle;rounded=0;sketch=1;hachureGap=4;jiggle=2;curveFitting=1;orthogonalLoop=1;jettySize=auto;html=1;fontFamily=Architects Daughter;fontSource=https%3A%2F%2Ffonts.googleapis.com%2Fcss%3Ffamily%3DArchitects%2BDaughter;" edge="1" parent="1" source="RMSyVIdG78tPgDftZzgw-4" target="RMSyVIdG78tPgDftZzgw-6">
          <mxGeometry relative="1" as="geometry" />
        </mxCell>
        <UserObject label="&lt;div&gt;File Based Systems&lt;/div&gt;" tooltip="File-Based Systems: Before databases, data was stored in flat files. These systems lacked a unified data management system, leading to inefficiencies in data access and manipulation." id="RMSyVIdG78tPgDftZzgw-4">
          <mxCell style="ellipse;whiteSpace=wrap;html=1;fontFamily=Architects Daughter;sketch=1;hachureGap=4;jiggle=2;curveFitting=1;fontSource=https%3A%2F%2Ffonts.googleapis.com%2Fcss%3Ffamily%3DArchitects%2BDaughter;" vertex="1" parent="1">
            <mxGeometry x="-40" y="640" width="80" height="80" as="geometry" />
          </mxCell>
        </UserObject>
        <mxCell id="RMSyVIdG78tPgDftZzgw-9" value="" style="edgeStyle=orthogonalEdgeStyle;rounded=0;sketch=1;hachureGap=4;jiggle=2;curveFitting=1;orthogonalLoop=1;jettySize=auto;html=1;fontFamily=Architects Daughter;fontSource=https%3A%2F%2Ffonts.googleapis.com%2Fcss%3Ffamily%3DArchitects%2BDaughter;" edge="1" parent="1" source="RMSyVIdG78tPgDftZzgw-6" target="RMSyVIdG78tPgDftZzgw-8">
          <mxGeometry relative="1" as="geometry" />
        </mxCell>
        <UserObject label="Problems :&lt;br&gt;Data Redundancy &amp;amp; Incosistency" tooltip="Data Redundancy and Inconsistency: Since each application maintained its own files, the same data could be duplicated across multiple files, leading to inconsistencies and difficulties in updating data uniformly." id="RMSyVIdG78tPgDftZzgw-6">
          <mxCell style="shape=hexagon;perimeter=hexagonPerimeter2;whiteSpace=wrap;html=1;fixedSize=1;fontFamily=Architects Daughter;sketch=1;hachureGap=4;jiggle=2;curveFitting=1;fontSource=https%3A%2F%2Ffonts.googleapis.com%2Fcss%3Ffamily%3DArchitects%2BDaughter;" vertex="1" parent="1">
            <mxGeometry x="-60" y="840" width="120" height="80" as="geometry" />
          </mxCell>
        </UserObject>
        <UserObject label="Solution : &lt;br&gt;&lt;div&gt;Centralized&amp;nbsp;&lt;/div&gt;&lt;div&gt;Database&lt;/div&gt;" tooltip="Centralized Databases: The idea of centralized data storage emerged to reduce redundancy by storing data in a single repository that could be accessed by multiple applications." id="RMSyVIdG78tPgDftZzgw-8">
          <mxCell style="shape=hexagon;perimeter=hexagonPerimeter2;whiteSpace=wrap;html=1;fixedSize=1;fontFamily=Architects Daughter;sketch=1;hachureGap=4;jiggle=2;curveFitting=1;fontSource=https%3A%2F%2Ffonts.googleapis.com%2Fcss%3Ffamily%3DArchitects%2BDaughter;" vertex="1" parent="1">
            <mxGeometry x="-60" y="1000" width="120" height="80" as="geometry" />
          </mxCell>
        </UserObject>
        <mxCell id="RMSyVIdG78tPgDftZzgw-13" value="" style="edgeStyle=orthogonalEdgeStyle;rounded=0;sketch=1;hachureGap=4;jiggle=2;curveFitting=1;orthogonalLoop=1;jettySize=auto;html=1;fontFamily=Architects Daughter;fontSource=https%3A%2F%2Ffonts.googleapis.com%2Fcss%3Ffamily%3DArchitects%2BDaughter;" edge="1" parent="1" source="RMSyVIdG78tPgDftZzgw-10" target="RMSyVIdG78tPgDftZzgw-12">
          <mxGeometry relative="1" as="geometry" />
        </mxCell>
        <mxCell id="RMSyVIdG78tPgDftZzgw-15" value="" style="edgeStyle=orthogonalEdgeStyle;rounded=0;sketch=1;hachureGap=4;jiggle=2;curveFitting=1;orthogonalLoop=1;jettySize=auto;html=1;fontFamily=Architects Daughter;fontSource=https%3A%2F%2Ffonts.googleapis.com%2Fcss%3Ffamily%3DArchitects%2BDaughter;" edge="1" parent="1" source="RMSyVIdG78tPgDftZzgw-10" target="RMSyVIdG78tPgDftZzgw-14">
          <mxGeometry relative="1" as="geometry" />
        </mxCell>
        <mxCell id="RMSyVIdG78tPgDftZzgw-10" value="&lt;strong&gt;Data Models&lt;/strong&gt;" style="whiteSpace=wrap;html=1;fontFamily=Architects Daughter;sketch=1;hachureGap=4;jiggle=2;curveFitting=1;fontSource=https%3A%2F%2Ffonts.googleapis.com%2Fcss%3Ffamily%3DArchitects%2BDaughter;" vertex="1" parent="1">
          <mxGeometry x="300" y="480" width="120" height="40" as="geometry" />
        </mxCell>
        <mxCell id="RMSyVIdG78tPgDftZzgw-25" style="edgeStyle=orthogonalEdgeStyle;rounded=0;sketch=1;hachureGap=4;jiggle=2;curveFitting=1;orthogonalLoop=1;jettySize=auto;html=1;fontFamily=Architects Daughter;fontSource=https%3A%2F%2Ffonts.googleapis.com%2Fcss%3Ffamily%3DArchitects%2BDaughter;" edge="1" parent="1" source="RMSyVIdG78tPgDftZzgw-12" target="RMSyVIdG78tPgDftZzgw-17">
          <mxGeometry relative="1" as="geometry" />
        </mxCell>
        <UserObject label="Hierarchical&amp;nbsp; &lt;br&gt;Models" tooltip="Hierarchical Model: Introduced by IBMâ€™s Information Management System (IMS), this model organized data in a tree structure with parent-child relationships." id="RMSyVIdG78tPgDftZzgw-12">
          <mxCell style="ellipse;whiteSpace=wrap;html=1;fontFamily=Architects Daughter;sketch=1;hachureGap=4;jiggle=2;curveFitting=1;fontSource=https%3A%2F%2Ffonts.googleapis.com%2Fcss%3Ffamily%3DArchitects%2BDaughter;" vertex="1" parent="1">
            <mxGeometry x="220" y="640" width="80" height="80" as="geometry" />
          </mxCell>
        </UserObject>
        <mxCell id="RMSyVIdG78tPgDftZzgw-26" style="edgeStyle=orthogonalEdgeStyle;rounded=0;sketch=1;hachureGap=4;jiggle=2;curveFitting=1;orthogonalLoop=1;jettySize=auto;html=1;fontFamily=Architects Daughter;fontSource=https%3A%2F%2Ffonts.googleapis.com%2Fcss%3Ffamily%3DArchitects%2BDaughter;" edge="1" parent="1" source="RMSyVIdG78tPgDftZzgw-14" target="RMSyVIdG78tPgDftZzgw-17">
          <mxGeometry relative="1" as="geometry" />
        </mxCell>
        <UserObject label="Network Model" tooltip="Network Model: Introduced by Charles Bachman with the Integrated Data Store (IDS), this model allowed more complex relationships, where records could have multiple parents and children." id="RMSyVIdG78tPgDftZzgw-14">
          <mxCell style="ellipse;whiteSpace=wrap;html=1;fontFamily=Architects Daughter;sketch=1;hachureGap=4;jiggle=2;curveFitting=1;fontSource=https%3A%2F%2Ffonts.googleapis.com%2Fcss%3Ffamily%3DArchitects%2BDaughter;" vertex="1" parent="1">
            <mxGeometry x="420" y="640" width="80" height="80" as="geometry" />
          </mxCell>
        </UserObject>
        <mxCell id="RMSyVIdG78tPgDftZzgw-19" value="" style="edgeStyle=orthogonalEdgeStyle;rounded=0;sketch=1;hachureGap=4;jiggle=2;curveFitting=1;orthogonalLoop=1;jettySize=auto;html=1;fontFamily=Architects Daughter;fontSource=https%3A%2F%2Ffonts.googleapis.com%2Fcss%3Ffamily%3DArchitects%2BDaughter;" edge="1" parent="1" source="RMSyVIdG78tPgDftZzgw-17" target="RMSyVIdG78tPgDftZzgw-18">
          <mxGeometry relative="1" as="geometry" />
        </mxCell>
        <mxCell id="RMSyVIdG78tPgDftZzgw-21" value="" style="edgeStyle=orthogonalEdgeStyle;rounded=0;sketch=1;hachureGap=4;jiggle=2;curveFitting=1;orthogonalLoop=1;jettySize=auto;html=1;fontFamily=Architects Daughter;fontSource=https%3A%2F%2Ffonts.googleapis.com%2Fcss%3Ffamily%3DArchitects%2BDaughter;" edge="1" parent="1" source="RMSyVIdG78tPgDftZzgw-17" target="RMSyVIdG78tPgDftZzgw-20">
          <mxGeometry relative="1" as="geometry" />
        </mxCell>
        <mxCell id="RMSyVIdG78tPgDftZzgw-17" value="&lt;div&gt;Problem&lt;br&gt;&lt;/div&gt;" style="shape=hexagon;perimeter=hexagonPerimeter2;whiteSpace=wrap;html=1;fixedSize=1;sketch=1;hachureGap=4;jiggle=2;curveFitting=1;fontFamily=Architects Daughter;fontSource=https%3A%2F%2Ffonts.googleapis.com%2Fcss%3Ffamily%3DArchitects%2BDaughter;" vertex="1" parent="1">
          <mxGeometry x="300" y="840" width="120" height="40" as="geometry" />
        </mxCell>
        <mxCell id="RMSyVIdG78tPgDftZzgw-23" value="" style="edgeStyle=orthogonalEdgeStyle;rounded=0;sketch=1;hachureGap=4;jiggle=2;curveFitting=1;orthogonalLoop=1;jettySize=auto;html=1;fontFamily=Architects Daughter;fontSource=https%3A%2F%2Ffonts.googleapis.com%2Fcss%3Ffamily%3DArchitects%2BDaughter;" edge="1" parent="1" source="RMSyVIdG78tPgDftZzgw-18" target="RMSyVIdG78tPgDftZzgw-22">
          <mxGeometry relative="1" as="geometry" />
        </mxCell>
        <UserObject label="Rigidity" tooltip="Rigidity: Both models were highly rigid; changes to the data structure required significant rewiring of the system, making them inflexible to evolving business needs." id="RMSyVIdG78tPgDftZzgw-18">
          <mxCell style="ellipse;whiteSpace=wrap;html=1;fontFamily=Architects Daughter;sketch=1;hachureGap=4;jiggle=2;curveFitting=1;fontSource=https%3A%2F%2Ffonts.googleapis.com%2Fcss%3Ffamily%3DArchitects%2BDaughter;" vertex="1" parent="1">
            <mxGeometry x="220" y="960" width="80" height="80" as="geometry" />
          </mxCell>
        </UserObject>
        <mxCell id="RMSyVIdG78tPgDftZzgw-24" style="edgeStyle=orthogonalEdgeStyle;rounded=0;sketch=1;hachureGap=4;jiggle=2;curveFitting=1;orthogonalLoop=1;jettySize=auto;html=1;entryX=0.5;entryY=0;entryDx=0;entryDy=0;fontFamily=Architects Daughter;fontSource=https%3A%2F%2Ffonts.googleapis.com%2Fcss%3Ffamily%3DArchitects%2BDaughter;" edge="1" parent="1" source="RMSyVIdG78tPgDftZzgw-20" target="RMSyVIdG78tPgDftZzgw-22">
          <mxGeometry relative="1" as="geometry" />
        </mxCell>
        <UserObject label="Complex Queries" tooltip="Complex Queries: Querying data was cumbersome, requiring detailed knowledge of the data structure, leading to complex and error-prone queries." id="RMSyVIdG78tPgDftZzgw-20">
          <mxCell style="ellipse;whiteSpace=wrap;html=1;fontFamily=Architects Daughter;sketch=1;hachureGap=4;jiggle=2;curveFitting=1;fontSource=https%3A%2F%2Ffonts.googleapis.com%2Fcss%3Ffamily%3DArchitects%2BDaughter;" vertex="1" parent="1">
            <mxGeometry x="420" y="960" width="80" height="80" as="geometry" />
          </mxCell>
        </UserObject>
        <UserObject label="&lt;div&gt;Solution :&lt;/div&gt;Emergence of Relational Model" tooltip="Emergence of the Relational Model: The introduction of the relational model by Edgar F. Codd proposed a more flexible and intuitive way of structuring data using tables, which became a foundation for more advanced database systems." id="RMSyVIdG78tPgDftZzgw-22">
          <mxCell style="rounded=1;whiteSpace=wrap;html=1;fontFamily=Architects Daughter;sketch=1;hachureGap=4;jiggle=2;curveFitting=1;fontSource=https%3A%2F%2Ffonts.googleapis.com%2Fcss%3Ffamily%3DArchitects%2BDaughter;" vertex="1" parent="1">
            <mxGeometry x="300" y="1160" width="120" height="80" as="geometry" />
          </mxCell>
        </UserObject>
        <mxCell id="RMSyVIdG78tPgDftZzgw-30" value="" style="edgeStyle=orthogonalEdgeStyle;rounded=0;sketch=1;hachureGap=4;jiggle=2;curveFitting=1;orthogonalLoop=1;jettySize=auto;html=1;fontFamily=Architects Daughter;fontSource=https%3A%2F%2Ffonts.googleapis.com%2Fcss%3Ffamily%3DArchitects%2BDaughter;" edge="1" parent="1" source="RMSyVIdG78tPgDftZzgw-27" target="RMSyVIdG78tPgDftZzgw-29">
          <mxGeometry relative="1" as="geometry" />
        </mxCell>
        <mxCell id="RMSyVIdG78tPgDftZzgw-27" value="&lt;font style=&quot;font-size: 20px;&quot;&gt;The Relational Model : A Paradigm Shift (1970s- 1980s)&lt;br&gt;&lt;/font&gt;" style="shape=step;perimeter=stepPerimeter;whiteSpace=wrap;html=1;fixedSize=1;sketch=1;hachureGap=4;jiggle=2;curveFitting=1;fontFamily=Architects Daughter;fontSource=https%3A%2F%2Ffonts.googleapis.com%2Fcss%3Ffamily%3DArchitects%2BDaughter;" vertex="1" parent="1">
          <mxGeometry x="760" y="280" width="400" height="80" as="geometry" />
        </mxCell>
        <mxCell id="RMSyVIdG78tPgDftZzgw-32" value="" style="edgeStyle=orthogonalEdgeStyle;rounded=0;sketch=1;hachureGap=4;jiggle=2;curveFitting=1;orthogonalLoop=1;jettySize=auto;html=1;fontFamily=Architects Daughter;fontSource=https%3A%2F%2Ffonts.googleapis.com%2Fcss%3Ffamily%3DArchitects%2BDaughter;" edge="1" parent="1" source="RMSyVIdG78tPgDftZzgw-29" target="RMSyVIdG78tPgDftZzgw-31">
          <mxGeometry relative="1" as="geometry" />
        </mxCell>
        <mxCell id="RMSyVIdG78tPgDftZzgw-29" value="Architecture" style="whiteSpace=wrap;html=1;fontFamily=Architects Daughter;sketch=1;hachureGap=4;jiggle=2;curveFitting=1;fontSource=https%3A%2F%2Ffonts.googleapis.com%2Fcss%3Ffamily%3DArchitects%2BDaughter;" vertex="1" parent="1">
          <mxGeometry x="760" y="480" width="120" height="40" as="geometry" />
        </mxCell>
        <mxCell id="RMSyVIdG78tPgDftZzgw-34" value="" style="edgeStyle=orthogonalEdgeStyle;rounded=0;sketch=1;hachureGap=4;jiggle=2;curveFitting=1;orthogonalLoop=1;jettySize=auto;html=1;fontFamily=Architects Daughter;fontSource=https%3A%2F%2Ffonts.googleapis.com%2Fcss%3Ffamily%3DArchitects%2BDaughter;" edge="1" parent="1" source="RMSyVIdG78tPgDftZzgw-31" target="RMSyVIdG78tPgDftZzgw-33">
          <mxGeometry relative="1" as="geometry" />
        </mxCell>
        <mxCell id="RMSyVIdG78tPgDftZzgw-31" value="RDBMS" style="ellipse;whiteSpace=wrap;html=1;fontFamily=Architects Daughter;sketch=1;hachureGap=4;jiggle=2;curveFitting=1;fontSource=https%3A%2F%2Ffonts.googleapis.com%2Fcss%3Ffamily%3DArchitects%2BDaughter;" vertex="1" parent="1">
          <mxGeometry x="780" y="560" width="80" height="80" as="geometry" />
        </mxCell>
        <mxCell id="RMSyVIdG78tPgDftZzgw-36" value="" style="edgeStyle=orthogonalEdgeStyle;rounded=0;sketch=1;hachureGap=4;jiggle=2;curveFitting=1;orthogonalLoop=1;jettySize=auto;html=1;fontFamily=Architects Daughter;fontSource=https%3A%2F%2Ffonts.googleapis.com%2Fcss%3Ffamily%3DArchitects%2BDaughter;" edge="1" parent="1" source="RMSyVIdG78tPgDftZzgw-33" target="RMSyVIdG78tPgDftZzgw-35">
          <mxGeometry relative="1" as="geometry" />
        </mxCell>
        <mxCell id="RMSyVIdG78tPgDftZzgw-33" value="Introduction to SQL" style="whiteSpace=wrap;html=1;fontFamily=Architects Daughter;sketch=1;hachureGap=4;jiggle=2;curveFitting=1;fontSource=https%3A%2F%2Ffonts.googleapis.com%2Fcss%3Ffamily%3DArchitects%2BDaughter;" vertex="1" parent="1">
          <mxGeometry x="760" y="680" width="120" height="40" as="geometry" />
        </mxCell>
        <mxCell id="RMSyVIdG78tPgDftZzgw-38" value="" style="edgeStyle=orthogonalEdgeStyle;rounded=0;sketch=1;hachureGap=4;jiggle=2;curveFitting=1;orthogonalLoop=1;jettySize=auto;html=1;fontFamily=Architects Daughter;fontSource=https%3A%2F%2Ffonts.googleapis.com%2Fcss%3Ffamily%3DArchitects%2BDaughter;" edge="1" parent="1" source="RMSyVIdG78tPgDftZzgw-35" target="RMSyVIdG78tPgDftZzgw-37">
          <mxGeometry relative="1" as="geometry" />
        </mxCell>
        <mxCell id="RMSyVIdG78tPgDftZzgw-35" value="Problem:" style="shape=hexagon;perimeter=hexagonPerimeter2;whiteSpace=wrap;html=1;fixedSize=1;fontFamily=Architects Daughter;sketch=1;hachureGap=4;jiggle=2;curveFitting=1;fontSource=https%3A%2F%2Ffonts.googleapis.com%2Fcss%3Ffamily%3DArchitects%2BDaughter;" vertex="1" parent="1">
          <mxGeometry x="760" y="840" width="120" height="40" as="geometry" />
        </mxCell>
        <mxCell id="RMSyVIdG78tPgDftZzgw-40" value="" style="edgeStyle=orthogonalEdgeStyle;rounded=0;sketch=1;hachureGap=4;jiggle=2;curveFitting=1;orthogonalLoop=1;jettySize=auto;html=1;fontFamily=Architects Daughter;fontSource=https%3A%2F%2Ffonts.googleapis.com%2Fcss%3Ffamily%3DArchitects%2BDaughter;" edge="1" parent="1" source="RMSyVIdG78tPgDftZzgw-37" target="RMSyVIdG78tPgDftZzgw-39">
          <mxGeometry relative="1" as="geometry" />
        </mxCell>
        <mxCell id="RMSyVIdG78tPgDftZzgw-37" value="Performance" style="ellipse;whiteSpace=wrap;html=1;fontFamily=Architects Daughter;sketch=1;hachureGap=4;jiggle=2;curveFitting=1;fontSource=https%3A%2F%2Ffonts.googleapis.com%2Fcss%3Ffamily%3DArchitects%2BDaughter;" vertex="1" parent="1">
          <mxGeometry x="780" y="920" width="80" height="80" as="geometry" />
        </mxCell>
        <mxCell id="RMSyVIdG78tPgDftZzgw-42" value="" style="edgeStyle=orthogonalEdgeStyle;rounded=0;sketch=1;hachureGap=4;jiggle=2;curveFitting=1;orthogonalLoop=1;jettySize=auto;html=1;fontFamily=Architects Daughter;fontSource=https%3A%2F%2Ffonts.googleapis.com%2Fcss%3Ffamily%3DArchitects%2BDaughter;" edge="1" parent="1" source="RMSyVIdG78tPgDftZzgw-39" target="RMSyVIdG78tPgDftZzgw-41">
          <mxGeometry relative="1" as="geometry" />
        </mxCell>
        <mxCell id="RMSyVIdG78tPgDftZzgw-44" value="" style="edgeStyle=orthogonalEdgeStyle;rounded=0;sketch=1;hachureGap=4;jiggle=2;curveFitting=1;orthogonalLoop=1;jettySize=auto;html=1;fontFamily=Architects Daughter;fontSource=https%3A%2F%2Ffonts.googleapis.com%2Fcss%3Ffamily%3DArchitects%2BDaughter;" edge="1" parent="1" source="RMSyVIdG78tPgDftZzgw-39" target="RMSyVIdG78tPgDftZzgw-43">
          <mxGeometry relative="1" as="geometry" />
        </mxCell>
        <mxCell id="RMSyVIdG78tPgDftZzgw-39" value="Solution" style="shape=hexagon;perimeter=hexagonPerimeter2;whiteSpace=wrap;html=1;fixedSize=1;fontFamily=Architects Daughter;sketch=1;hachureGap=4;jiggle=2;curveFitting=1;fontSource=https%3A%2F%2Ffonts.googleapis.com%2Fcss%3Ffamily%3DArchitects%2BDaughter;" vertex="1" parent="1">
          <mxGeometry x="760" y="1080" width="120" height="40" as="geometry" />
        </mxCell>
        <mxCell id="RMSyVIdG78tPgDftZzgw-41" value="Indexing" style="ellipse;whiteSpace=wrap;html=1;fontFamily=Architects Daughter;sketch=1;hachureGap=4;jiggle=2;curveFitting=1;fontSource=https%3A%2F%2Ffonts.googleapis.com%2Fcss%3Ffamily%3DArchitects%2BDaughter;" vertex="1" parent="1">
          <mxGeometry x="640" y="1200" width="80" height="80" as="geometry" />
        </mxCell>
        <mxCell id="RMSyVIdG78tPgDftZzgw-43" value="Query Optimization" style="ellipse;whiteSpace=wrap;html=1;fontFamily=Architects Daughter;sketch=1;hachureGap=4;jiggle=2;curveFitting=1;fontSource=https%3A%2F%2Ffonts.googleapis.com%2Fcss%3Ffamily%3DArchitects%2BDaughter;" vertex="1" parent="1">
          <mxGeometry x="920" y="1200" width="80" height="80" as="geometry" />
        </mxCell>
      </root>
    </mxGraphModel>
  </diagram>
</mxfile>
